<svg xmlns="http://www.w3.org/2000/svg" width="1200" height="500" viewBox="0 0 1200 500">
  <rect width="100%" height="100%" fill="#ffffff" />
  <text x="60" y="28" font-family="system-ui, sans-serif" font-size="20" font-weight="600" fill="#111827">summary.txt</text>
  <text x="60" y="44" font-family="system-ui, sans-serif" font-size="12" fill="#4b5563">216 measured runs, avg 106.0s, max 706s</text>
  <line x1="60" y1="445.00" x2="1170" y2="445.00" stroke="#e5e7eb" stroke-width="1" /><text x="50" y="449.00" text-anchor="end" font-family="system-ui, sans-serif" font-size="11" fill="#4b5563">0</text><line x1="60" y1="418.67" x2="1170" y2="418.67" stroke="#e5e7eb" stroke-width="1" /><text x="50" y="422.67" text-anchor="end" font-family="system-ui, sans-serif" font-size="11" fill="#4b5563">50</text><line x1="60" y1="392.33" x2="1170" y2="392.33" stroke="#e5e7eb" stroke-width="1" /><text x="50" y="396.33" text-anchor="end" font-family="system-ui, sans-serif" font-size="11" fill="#4b5563">100</text><line x1="60" y1="366.00" x2="1170" y2="366.00" stroke="#e5e7eb" stroke-width="1" /><text x="50" y="370.00" text-anchor="end" font-family="system-ui, sans-serif" font-size="11" fill="#4b5563">150</text><line x1="60" y1="339.67" x2="1170" y2="339.67" stroke="#e5e7eb" stroke-width="1" /><text x="50" y="343.67" text-anchor="end" font-family="system-ui, sans-serif" font-size="11" fill="#4b5563">200</text><line x1="60" y1="313.33" x2="1170" y2="313.33" stroke="#e5e7eb" stroke-width="1" /><text x="50" y="317.33" text-anchor="end" font-family="system-ui, sans-serif" font-size="11" fill="#4b5563">250</text><line x1="60" y1="287.00" x2="1170" y2="287.00" stroke="#e5e7eb" stroke-width="1" /><text x="50" y="291.00" text-anchor="end" font-family="system-ui, sans-serif" font-size="11" fill="#4b5563">300</text><line x1="60" y1="260.67" x2="1170" y2="260.67" stroke="#e5e7eb" stroke-width="1" /><text x="50" y="264.67" text-anchor="end" font-family="system-ui, sans-serif" font-size="11" fill="#4b5563">350</text><line x1="60" y1="234.33" x2="1170" y2="234.33" stroke="#e5e7eb" stroke-width="1" /><text x="50" y="238.33" text-anchor="end" font-family="system-ui, sans-serif" font-size="11" fill="#4b5563">400</text><line x1="60" y1="208.00" x2="1170" y2="208.00" stroke="#e5e7eb" stroke-width="1" /><text x="50" y="212.00" text-anchor="end" font-family="system-ui, sans-serif" font-size="11" fill="#4b5563">450</text><line x1="60" y1="181.67" x2="1170" y2="181.67" stroke="#e5e7eb" stroke-width="1" /><text x="50" y="185.67" text-anchor="end" font-family="system-ui, sans-serif" font-size="11" fill="#4b5563">500</text><line x1="60" y1="155.33" x2="1170" y2="155.33" stroke="#e5e7eb" stroke-width="1" /><text x="50" y="159.33" text-anchor="end" font-family="system-ui, sans-serif" font-size="11" fill="#4b5563">550</text><line x1="60" y1="129.00" x2="1170" y2="129.00" stroke="#e5e7eb" stroke-width="1" /><text x="50" y="133.00" text-anchor="end" font-family="system-ui, sans-serif" font-size="11" fill="#4b5563">600</text><line x1="60" y1="102.67" x2="1170" y2="102.67" stroke="#e5e7eb" stroke-width="1" /><text x="50" y="106.67" text-anchor="end" font-family="system-ui, sans-serif" font-size="11" fill="#4b5563">650</text><line x1="60" y1="76.33" x2="1170" y2="76.33" stroke="#e5e7eb" stroke-width="1" /><text x="50" y="80.33" text-anchor="end" font-family="system-ui, sans-serif" font-size="11" fill="#4b5563">700</text><line x1="60" y1="50.00" x2="1170" y2="50.00" stroke="#e5e7eb" stroke-width="1" /><text x="50" y="54.00" text-anchor="end" font-family="system-ui, sans-serif" font-size="11" fill="#4b5563">750</text>
  <line x1="60.00" y1="445" x2="60.00" y2="451" stroke="#9ca3af" stroke-width="1" /><text x="60.00" y="482" text-anchor="middle" font-family="system-ui, sans-serif" font-size="11" fill="#4b5563">1</text><line x1="170.00" y1="445" x2="170.00" y2="451" stroke="#9ca3af" stroke-width="1" /><text x="170.00" y="482" text-anchor="middle" font-family="system-ui, sans-serif" font-size="11" fill="#4b5563">23</text><line x1="280.00" y1="445" x2="280.00" y2="451" stroke="#9ca3af" stroke-width="1" /><text x="280.00" y="482" text-anchor="middle" font-family="system-ui, sans-serif" font-size="11" fill="#4b5563">45</text><line x1="390.00" y1="445" x2="390.00" y2="451" stroke="#9ca3af" stroke-width="1" /><text x="390.00" y="482" text-anchor="middle" font-family="system-ui, sans-serif" font-size="11" fill="#4b5563">67</text><line x1="500.00" y1="445" x2="500.00" y2="451" stroke="#9ca3af" stroke-width="1" /><text x="500.00" y="482" text-anchor="middle" font-family="system-ui, sans-serif" font-size="11" fill="#4b5563">89</text><line x1="610.00" y1="445" x2="610.00" y2="451" stroke="#9ca3af" stroke-width="1" /><text x="610.00" y="482" text-anchor="middle" font-family="system-ui, sans-serif" font-size="11" fill="#4b5563">111</text><line x1="720.00" y1="445" x2="720.00" y2="451" stroke="#9ca3af" stroke-width="1" /><text x="720.00" y="482" text-anchor="middle" font-family="system-ui, sans-serif" font-size="11" fill="#4b5563">133</text><line x1="830.00" y1="445" x2="830.00" y2="451" stroke="#9ca3af" stroke-width="1" /><text x="830.00" y="482" text-anchor="middle" font-family="system-ui, sans-serif" font-size="11" fill="#4b5563">155</text><line x1="940.00" y1="445" x2="940.00" y2="451" stroke="#9ca3af" stroke-width="1" /><text x="940.00" y="482" text-anchor="middle" font-family="system-ui, sans-serif" font-size="11" fill="#4b5563">177</text><line x1="1050.00" y1="445" x2="1050.00" y2="451" stroke="#9ca3af" stroke-width="1" /><text x="1050.00" y="482" text-anchor="middle" font-family="system-ui, sans-serif" font-size="11" fill="#4b5563">199</text><line x1="1160.00" y1="445" x2="1160.00" y2="451" stroke="#9ca3af" stroke-width="1" /><text x="1160.00" y="482" text-anchor="middle" font-family="system-ui, sans-serif" font-size="11" fill="#4b5563">221</text>
  <line x1="60" y1="445" x2="1170" y2="445" stroke="#111827" stroke-width="1.5" />
  <line x1="60" y1="50" x2="60" y2="445" stroke="#111827" stroke-width="1.5" />
  <line x1="60" y1="381.80" x2="1170" y2="381.80" stroke="#dc2626" stroke-width="1.5" stroke-dasharray="6 4" /><text x="1170" y="373.80" text-anchor="end" font-family="system-ui, sans-serif" font-size="11" fill="#dc2626">threshold: 120s</text>
  <polyline fill="none" stroke="#2563eb" stroke-width="2" points="60.00,279.63 65.00,424.46 75.00,414.45 80.00,403.92 85.00,430.25 90.00,398.65 95.00,429.73 100.00,423.41 105.00,414.45 110.00,409.19 115.00,416.03 120.00,444.47 125.00,432.36 130.00,423.93 135.00,437.63 140.00,431.31 145.00,424.46 150.00,416.56 155.00,428.67 160.00,417.09 165.00,400.76 170.00,403.92 175.00,88.97 180.00,427.09 185.00,421.30 190.00,408.66 195.00,124.26 200.00,436.57 205.00,110.57 210.00,396.02 215.00,432.89 220.00,427.62 225.00,431.83 230.00,429.20 235.00,248.03 240.00,411.82 245.00,429.20 250.00,399.18 255.00,413.40 260.00,444.47 265.00,96.35 270.00,417.61 275.00,432.36 280.00,443.42 285.00,103.72 290.00,412.35 295.00,124.79 300.00,106.35 305.00,444.47 310.00,412.35 315.00,443.42 320.00,421.83 325.00,428.67 330.00,407.08 335.00,430.78 340.00,428.67 345.00,410.24 350.00,443.42 355.00,416.56 360.00,443.95 365.00,429.73 370.00,411.29 375.00,411.82 380.00,443.42 385.00,442.89 390.00,407.61 395.00,417.09 400.00,412.35 405.00,414.45 410.00,112.15 415.00,410.24 420.00,415.51 425.00,415.51 430.00,402.34 435.00,400.76 440.00,412.87 445.00,428.15 450.00,444.47 455.00,412.35 460.00,443.42 465.00,430.78 470.00,413.40 475.00,113.73 480.00,399.71 485.00,415.51 490.00,402.87 495.00,421.83 500.00,407.61 505.00,397.07 510.00,97.93 515.00,394.44 520.00,410.24 525.00,104.25 530.00,414.45 535.00,431.83 540.00,407.08 545.00,434.47 550.00,431.83 555.00,430.25 560.00,429.73 565.00,428.15 570.00,407.61 575.00,418.14 580.00,430.25 585.00,431.31 590.00,412.35 595.00,434.99 600.00,443.95 605.00,431.83 610.00,393.91 615.00,417.09 620.00,442.37 625.00,415.51 630.00,422.88 635.00,419.72 640.00,431.31 645.00,232.23 650.00,386.01 655.00,412.35 660.00,423.93 665.00,428.67 670.00,438.15 675.00,103.19 680.00,410.77 690.00,416.03 695.00,414.45 705.00,105.30 710.00,411.82 715.00,430.25 720.00,406.55 725.00,416.56 730.00,429.20 735.00,426.04 740.00,423.41 745.00,428.15 750.00,108.99 755.00,418.67 760.00,257.51 765.00,400.76 770.00,396.02 775.00,419.19 780.00,408.13 785.00,397.07 790.00,420.77 795.00,443.42 800.00,421.30 805.00,414.98 810.00,421.83 815.00,429.20 820.00,400.76 825.00,414.98 830.00,418.14 835.00,421.83 840.00,422.35 845.00,431.31 850.00,407.08 855.00,414.98 860.00,443.42 865.00,406.55 870.00,414.45 875.00,416.03 885.00,414.45 890.00,419.19 895.00,409.71 900.00,443.42 905.00,431.83 910.00,443.95 915.00,405.50 920.00,426.04 925.00,409.19 930.00,416.03 935.00,430.78 940.00,398.13 945.00,402.34 950.00,444.47 955.00,430.25 960.00,426.04 965.00,403.92 970.00,428.67 975.00,444.47 980.00,428.67 985.00,246.45 995.00,106.88 1000.00,430.25 1005.00,395.49 1010.00,427.09 1015.00,123.73 1025.00,411.29 1030.00,423.93 1035.00,427.62 1040.00,396.02 1045.00,444.47 1050.00,419.19 1055.00,444.47 1060.00,430.78 1065.00,419.72 1070.00,123.73 1075.00,408.13 1085.00,381.27 1090.00,415.51 1095.00,426.57 1100.00,423.93 1105.00,414.98 1110.00,424.46 1115.00,429.73 1120.00,408.66 1125.00,442.89 1130.00,419.72 1135.00,428.15 1140.00,443.95 1145.00,436.57 1150.00,75.28 1155.00,416.03 1160.00,400.76 1165.00,73.17 1170.00,432.36" />
  <circle cx="60.00" cy="279.63" r="3.5" fill="#dc2626"><title>Run 1: 314s after end marker</title></circle><circle cx="65.00" cy="424.46" r="3.5" fill="#2563eb"><title>Run 2: 39s after end marker</title></circle><circle cx="75.00" cy="414.45" r="3.5" fill="#2563eb"><title>Run 4: 58s after end marker</title></circle><circle cx="80.00" cy="403.92" r="3.5" fill="#2563eb"><title>Run 5: 78s after end marker</title></circle><circle cx="85.00" cy="430.25" r="3.5" fill="#2563eb"><title>Run 6: 28s after end marker</title></circle><circle cx="90.00" cy="398.65" r="3.5" fill="#2563eb"><title>Run 7: 88s after end marker</title></circle><circle cx="95.00" cy="429.73" r="3.5" fill="#2563eb"><title>Run 8: 29s after end marker</title></circle><circle cx="100.00" cy="423.41" r="3.5" fill="#2563eb"><title>Run 9: 41s after end marker</title></circle><circle cx="105.00" cy="414.45" r="3.5" fill="#2563eb"><title>Run 10: 58s after end marker</title></circle><circle cx="110.00" cy="409.19" r="3.5" fill="#2563eb"><title>Run 11: 68s after end marker</title></circle><circle cx="115.00" cy="416.03" r="3.5" fill="#2563eb"><title>Run 12: 55s after end marker</title></circle><circle cx="120.00" cy="444.47" r="3.5" fill="#2563eb"><title>Run 13: 1s after end marker</title></circle><circle cx="125.00" cy="432.36" r="3.5" fill="#2563eb"><title>Run 14: 24s after end marker</title></circle><circle cx="130.00" cy="423.93" r="3.5" fill="#2563eb"><title>Run 15: 40s after end marker</title></circle><circle cx="135.00" cy="437.63" r="3.5" fill="#2563eb"><title>Run 16: 14s after end marker</title></circle><circle cx="140.00" cy="431.31" r="3.5" fill="#2563eb"><title>Run 17: 26s after end marker</title></circle><circle cx="145.00" cy="424.46" r="3.5" fill="#2563eb"><title>Run 18: 39s after end marker</title></circle><circle cx="150.00" cy="416.56" r="3.5" fill="#2563eb"><title>Run 19: 54s after end marker</title></circle><circle cx="155.00" cy="428.67" r="3.5" fill="#2563eb"><title>Run 20: 31s after end marker</title></circle><circle cx="160.00" cy="417.09" r="3.5" fill="#2563eb"><title>Run 21: 53s after end marker</title></circle><circle cx="165.00" cy="400.76" r="3.5" fill="#2563eb"><title>Run 22: 84s after end marker</title></circle><circle cx="170.00" cy="403.92" r="3.5" fill="#2563eb"><title>Run 23: 78s after end marker</title></circle><circle cx="175.00" cy="88.97" r="3.5" fill="#dc2626"><title>Run 24: 676s after end marker</title></circle><circle cx="180.00" cy="427.09" r="3.5" fill="#2563eb"><title>Run 25: 34s after end marker</title></circle><circle cx="185.00" cy="421.30" r="3.5" fill="#2563eb"><title>Run 26: 45s after end marker</title></circle><circle cx="190.00" cy="408.66" r="3.5" fill="#2563eb"><title>Run 27: 69s after end marker</title></circle><circle cx="195.00" cy="124.26" r="3.5" fill="#dc2626"><title>Run 28: 609s after end marker</title></circle><circle cx="200.00" cy="436.57" r="3.5" fill="#2563eb"><title>Run 29: 16s after end marker</title></circle><circle cx="205.00" cy="110.57" r="3.5" fill="#dc2626"><title>Run 30: 635s after end marker</title></circle><circle cx="210.00" cy="396.02" r="3.5" fill="#2563eb"><title>Run 31: 93s after end marker</title></circle><circle cx="215.00" cy="432.89" r="3.5" fill="#2563eb"><title>Run 32: 23s after end marker</title></circle><circle cx="220.00" cy="427.62" r="3.5" fill="#2563eb"><title>Run 33: 33s after end marker</title></circle><circle cx="225.00" cy="431.83" r="3.5" fill="#2563eb"><title>Run 34: 25s after end marker</title></circle><circle cx="230.00" cy="429.20" r="3.5" fill="#2563eb"><title>Run 35: 30s after end marker</title></circle><circle cx="235.00" cy="248.03" r="3.5" fill="#dc2626"><title>Run 36: 374s after end marker</title></circle><circle cx="240.00" cy="411.82" r="3.5" fill="#2563eb"><title>Run 37: 63s after end marker</title></circle><circle cx="245.00" cy="429.20" r="3.5" fill="#2563eb"><title>Run 38: 30s after end marker</title></circle><circle cx="250.00" cy="399.18" r="3.5" fill="#2563eb"><title>Run 39: 87s after end marker</title></circle><circle cx="255.00" cy="413.40" r="3.5" fill="#2563eb"><title>Run 40: 60s after end marker</title></circle><circle cx="260.00" cy="444.47" r="3.5" fill="#2563eb"><title>Run 41: 1s after end marker</title></circle><circle cx="265.00" cy="96.35" r="3.5" fill="#dc2626"><title>Run 42: 662s after end marker</title></circle><circle cx="270.00" cy="417.61" r="3.5" fill="#2563eb"><title>Run 43: 52s after end marker</title></circle><circle cx="275.00" cy="432.36" r="3.5" fill="#2563eb"><title>Run 44: 24s after end marker</title></circle><circle cx="280.00" cy="443.42" r="3.5" fill="#2563eb"><title>Run 45: 3s after end marker</title></circle><circle cx="285.00" cy="103.72" r="3.5" fill="#dc2626"><title>Run 46: 648s after end marker</title></circle><circle cx="290.00" cy="412.35" r="3.5" fill="#2563eb"><title>Run 47: 62s after end marker</title></circle><circle cx="295.00" cy="124.79" r="3.5" fill="#dc2626"><title>Run 48: 608s after end marker</title></circle><circle cx="300.00" cy="106.35" r="3.5" fill="#dc2626"><title>Run 49: 643s after end marker</title></circle><circle cx="305.00" cy="444.47" r="3.5" fill="#2563eb"><title>Run 50: 1s after end marker</title></circle><circle cx="310.00" cy="412.35" r="3.5" fill="#2563eb"><title>Run 51: 62s after end marker</title></circle><circle cx="315.00" cy="443.42" r="3.5" fill="#2563eb"><title>Run 52: 3s after end marker</title></circle><circle cx="320.00" cy="421.83" r="3.5" fill="#2563eb"><title>Run 53: 44s after end marker</title></circle><circle cx="325.00" cy="428.67" r="3.5" fill="#2563eb"><title>Run 54: 31s after end marker</title></circle><circle cx="330.00" cy="407.08" r="3.5" fill="#2563eb"><title>Run 55: 72s after end marker</title></circle><circle cx="335.00" cy="430.78" r="3.5" fill="#2563eb"><title>Run 56: 27s after end marker</title></circle><circle cx="340.00" cy="428.67" r="3.5" fill="#2563eb"><title>Run 57: 31s after end marker</title></circle><circle cx="345.00" cy="410.24" r="3.5" fill="#2563eb"><title>Run 58: 66s after end marker</title></circle><circle cx="350.00" cy="443.42" r="3.5" fill="#2563eb"><title>Run 59: 3s after end marker</title></circle><circle cx="355.00" cy="416.56" r="3.5" fill="#2563eb"><title>Run 60: 54s after end marker</title></circle><circle cx="360.00" cy="443.95" r="3.5" fill="#2563eb"><title>Run 61: 2s after end marker</title></circle><circle cx="365.00" cy="429.73" r="3.5" fill="#2563eb"><title>Run 62: 29s after end marker</title></circle><circle cx="370.00" cy="411.29" r="3.5" fill="#2563eb"><title>Run 63: 64s after end marker</title></circle><circle cx="375.00" cy="411.82" r="3.5" fill="#2563eb"><title>Run 64: 63s after end marker</title></circle><circle cx="380.00" cy="443.42" r="3.5" fill="#2563eb"><title>Run 65: 3s after end marker</title></circle><circle cx="385.00" cy="442.89" r="3.5" fill="#2563eb"><title>Run 66: 4s after end marker</title></circle><circle cx="390.00" cy="407.61" r="3.5" fill="#2563eb"><title>Run 67: 71s after end marker</title></circle><circle cx="395.00" cy="417.09" r="3.5" fill="#2563eb"><title>Run 68: 53s after end marker</title></circle><circle cx="400.00" cy="412.35" r="3.5" fill="#2563eb"><title>Run 69: 62s after end marker</title></circle><circle cx="405.00" cy="414.45" r="3.5" fill="#2563eb"><title>Run 70: 58s after end marker</title></circle><circle cx="410.00" cy="112.15" r="3.5" fill="#dc2626"><title>Run 71: 632s after end marker</title></circle><circle cx="415.00" cy="410.24" r="3.5" fill="#2563eb"><title>Run 72: 66s after end marker</title></circle><circle cx="420.00" cy="415.51" r="3.5" fill="#2563eb"><title>Run 73: 56s after end marker</title></circle><circle cx="425.00" cy="415.51" r="3.5" fill="#2563eb"><title>Run 74: 56s after end marker</title></circle><circle cx="430.00" cy="402.34" r="3.5" fill="#2563eb"><title>Run 75: 81s after end marker</title></circle><circle cx="435.00" cy="400.76" r="3.5" fill="#2563eb"><title>Run 76: 84s after end marker</title></circle><circle cx="440.00" cy="412.87" r="3.5" fill="#2563eb"><title>Run 77: 61s after end marker</title></circle><circle cx="445.00" cy="428.15" r="3.5" fill="#2563eb"><title>Run 78: 32s after end marker</title></circle><circle cx="450.00" cy="444.47" r="3.5" fill="#2563eb"><title>Run 79: 1s after end marker</title></circle><circle cx="455.00" cy="412.35" r="3.5" fill="#2563eb"><title>Run 80: 62s after end marker</title></circle><circle cx="460.00" cy="443.42" r="3.5" fill="#2563eb"><title>Run 81: 3s after end marker</title></circle><circle cx="465.00" cy="430.78" r="3.5" fill="#2563eb"><title>Run 82: 27s after end marker</title></circle><circle cx="470.00" cy="413.40" r="3.5" fill="#2563eb"><title>Run 83: 60s after end marker</title></circle><circle cx="475.00" cy="113.73" r="3.5" fill="#dc2626"><title>Run 84: 629s after end marker</title></circle><circle cx="480.00" cy="399.71" r="3.5" fill="#2563eb"><title>Run 85: 86s after end marker</title></circle><circle cx="485.00" cy="415.51" r="3.5" fill="#2563eb"><title>Run 86: 56s after end marker</title></circle><circle cx="490.00" cy="402.87" r="3.5" fill="#2563eb"><title>Run 87: 80s after end marker</title></circle><circle cx="495.00" cy="421.83" r="3.5" fill="#2563eb"><title>Run 88: 44s after end marker</title></circle><circle cx="500.00" cy="407.61" r="3.5" fill="#2563eb"><title>Run 89: 71s after end marker</title></circle><circle cx="505.00" cy="397.07" r="3.5" fill="#2563eb"><title>Run 90: 91s after end marker</title></circle><circle cx="510.00" cy="97.93" r="3.5" fill="#dc2626"><title>Run 91: 659s after end marker</title></circle><circle cx="515.00" cy="394.44" r="3.5" fill="#2563eb"><title>Run 92: 96s after end marker</title></circle><circle cx="520.00" cy="410.24" r="3.5" fill="#2563eb"><title>Run 93: 66s after end marker</title></circle><circle cx="525.00" cy="104.25" r="3.5" fill="#dc2626"><title>Run 94: 647s after end marker</title></circle><circle cx="530.00" cy="414.45" r="3.5" fill="#2563eb"><title>Run 95: 58s after end marker</title></circle><circle cx="535.00" cy="431.83" r="3.5" fill="#2563eb"><title>Run 96: 25s after end marker</title></circle><circle cx="540.00" cy="407.08" r="3.5" fill="#2563eb"><title>Run 97: 72s after end marker</title></circle><circle cx="545.00" cy="434.47" r="3.5" fill="#2563eb"><title>Run 98: 20s after end marker</title></circle><circle cx="550.00" cy="431.83" r="3.5" fill="#2563eb"><title>Run 99: 25s after end marker</title></circle><circle cx="555.00" cy="430.25" r="3.5" fill="#2563eb"><title>Run 100: 28s after end marker</title></circle><circle cx="560.00" cy="429.73" r="3.5" fill="#2563eb"><title>Run 101: 29s after end marker</title></circle><circle cx="565.00" cy="428.15" r="3.5" fill="#2563eb"><title>Run 102: 32s after end marker</title></circle><circle cx="570.00" cy="407.61" r="3.5" fill="#2563eb"><title>Run 103: 71s after end marker</title></circle><circle cx="575.00" cy="418.14" r="3.5" fill="#2563eb"><title>Run 104: 51s after end marker</title></circle><circle cx="580.00" cy="430.25" r="3.5" fill="#2563eb"><title>Run 105: 28s after end marker</title></circle><circle cx="585.00" cy="431.31" r="3.5" fill="#2563eb"><title>Run 106: 26s after end marker</title></circle><circle cx="590.00" cy="412.35" r="3.5" fill="#2563eb"><title>Run 107: 62s after end marker</title></circle><circle cx="595.00" cy="434.99" r="3.5" fill="#2563eb"><title>Run 108: 19s after end marker</title></circle><circle cx="600.00" cy="443.95" r="3.5" fill="#2563eb"><title>Run 109: 2s after end marker</title></circle><circle cx="605.00" cy="431.83" r="3.5" fill="#2563eb"><title>Run 110: 25s after end marker</title></circle><circle cx="610.00" cy="393.91" r="3.5" fill="#2563eb"><title>Run 111: 97s after end marker</title></circle><circle cx="615.00" cy="417.09" r="3.5" fill="#2563eb"><title>Run 112: 53s after end marker</title></circle><circle cx="620.00" cy="442.37" r="3.5" fill="#2563eb"><title>Run 113: 5s after end marker</title></circle><circle cx="625.00" cy="415.51" r="3.5" fill="#2563eb"><title>Run 114: 56s after end marker</title></circle><circle cx="630.00" cy="422.88" r="3.5" fill="#2563eb"><title>Run 115: 42s after end marker</title></circle><circle cx="635.00" cy="419.72" r="3.5" fill="#2563eb"><title>Run 116: 48s after end marker</title></circle><circle cx="640.00" cy="431.31" r="3.5" fill="#2563eb"><title>Run 117: 26s after end marker</title></circle><circle cx="645.00" cy="232.23" r="3.5" fill="#dc2626"><title>Run 118: 404s after end marker</title></circle><circle cx="650.00" cy="386.01" r="3.5" fill="#2563eb"><title>Run 119: 112s after end marker</title></circle><circle cx="655.00" cy="412.35" r="3.5" fill="#2563eb"><title>Run 120: 62s after end marker</title></circle><circle cx="660.00" cy="423.93" r="3.5" fill="#2563eb"><title>Run 121: 40s after end marker</title></circle><circle cx="665.00" cy="428.67" r="3.5" fill="#2563eb"><title>Run 122: 31s after end marker</title></circle><circle cx="670.00" cy="438.15" r="3.5" fill="#2563eb"><title>Run 123: 13s after end marker</title></circle><circle cx="675.00" cy="103.19" r="3.5" fill="#dc2626"><title>Run 124: 649s after end marker</title></circle><circle cx="680.00" cy="410.77" r="3.5" fill="#2563eb"><title>Run 125: 65s after end marker</title></circle><circle cx="690.00" cy="416.03" r="3.5" fill="#2563eb"><title>Run 127: 55s after end marker</title></circle><circle cx="695.00" cy="414.45" r="3.5" fill="#2563eb"><title>Run 128: 58s after end marker</title></circle><circle cx="705.00" cy="105.30" r="3.5" fill="#dc2626"><title>Run 130: 645s after end marker</title></circle><circle cx="710.00" cy="411.82" r="3.5" fill="#2563eb"><title>Run 131: 63s after end marker</title></circle><circle cx="715.00" cy="430.25" r="3.5" fill="#2563eb"><title>Run 132: 28s after end marker</title></circle><circle cx="720.00" cy="406.55" r="3.5" fill="#2563eb"><title>Run 133: 73s after end marker</title></circle><circle cx="725.00" cy="416.56" r="3.5" fill="#2563eb"><title>Run 134: 54s after end marker</title></circle><circle cx="730.00" cy="429.20" r="3.5" fill="#2563eb"><title>Run 135: 30s after end marker</title></circle><circle cx="735.00" cy="426.04" r="3.5" fill="#2563eb"><title>Run 136: 36s after end marker</title></circle><circle cx="740.00" cy="423.41" r="3.5" fill="#2563eb"><title>Run 137: 41s after end marker</title></circle><circle cx="745.00" cy="428.15" r="3.5" fill="#2563eb"><title>Run 138: 32s after end marker</title></circle><circle cx="750.00" cy="108.99" r="3.5" fill="#dc2626"><title>Run 139: 638s after end marker</title></circle><circle cx="755.00" cy="418.67" r="3.5" fill="#2563eb"><title>Run 140: 50s after end marker</title></circle><circle cx="760.00" cy="257.51" r="3.5" fill="#dc2626"><title>Run 141: 356s after end marker</title></circle><circle cx="765.00" cy="400.76" r="3.5" fill="#2563eb"><title>Run 142: 84s after end marker</title></circle><circle cx="770.00" cy="396.02" r="3.5" fill="#2563eb"><title>Run 143: 93s after end marker</title></circle><circle cx="775.00" cy="419.19" r="3.5" fill="#2563eb"><title>Run 144: 49s after end marker</title></circle><circle cx="780.00" cy="408.13" r="3.5" fill="#2563eb"><title>Run 145: 70s after end marker</title></circle><circle cx="785.00" cy="397.07" r="3.5" fill="#2563eb"><title>Run 146: 91s after end marker</title></circle><circle cx="790.00" cy="420.77" r="3.5" fill="#2563eb"><title>Run 147: 46s after end marker</title></circle><circle cx="795.00" cy="443.42" r="3.5" fill="#2563eb"><title>Run 148: 3s after end marker</title></circle><circle cx="800.00" cy="421.30" r="3.5" fill="#2563eb"><title>Run 149: 45s after end marker</title></circle><circle cx="805.00" cy="414.98" r="3.5" fill="#2563eb"><title>Run 150: 57s after end marker</title></circle><circle cx="810.00" cy="421.83" r="3.5" fill="#2563eb"><title>Run 151: 44s after end marker</title></circle><circle cx="815.00" cy="429.20" r="3.5" fill="#2563eb"><title>Run 152: 30s after end marker</title></circle><circle cx="820.00" cy="400.76" r="3.5" fill="#2563eb"><title>Run 153: 84s after end marker</title></circle><circle cx="825.00" cy="414.98" r="3.5" fill="#2563eb"><title>Run 154: 57s after end marker</title></circle><circle cx="830.00" cy="418.14" r="3.5" fill="#2563eb"><title>Run 155: 51s after end marker</title></circle><circle cx="835.00" cy="421.83" r="3.5" fill="#2563eb"><title>Run 156: 44s after end marker</title></circle><circle cx="840.00" cy="422.35" r="3.5" fill="#2563eb"><title>Run 157: 43s after end marker</title></circle><circle cx="845.00" cy="431.31" r="3.5" fill="#2563eb"><title>Run 158: 26s after end marker</title></circle><circle cx="850.00" cy="407.08" r="3.5" fill="#2563eb"><title>Run 159: 72s after end marker</title></circle><circle cx="855.00" cy="414.98" r="3.5" fill="#2563eb"><title>Run 160: 57s after end marker</title></circle><circle cx="860.00" cy="443.42" r="3.5" fill="#2563eb"><title>Run 161: 3s after end marker</title></circle><circle cx="865.00" cy="406.55" r="3.5" fill="#2563eb"><title>Run 162: 73s after end marker</title></circle><circle cx="870.00" cy="414.45" r="3.5" fill="#2563eb"><title>Run 163: 58s after end marker</title></circle><circle cx="875.00" cy="416.03" r="3.5" fill="#2563eb"><title>Run 164: 55s after end marker</title></circle><circle cx="885.00" cy="414.45" r="3.5" fill="#2563eb"><title>Run 166: 58s after end marker</title></circle><circle cx="890.00" cy="419.19" r="3.5" fill="#2563eb"><title>Run 167: 49s after end marker</title></circle><circle cx="895.00" cy="409.71" r="3.5" fill="#2563eb"><title>Run 168: 67s after end marker</title></circle><circle cx="900.00" cy="443.42" r="3.5" fill="#2563eb"><title>Run 169: 3s after end marker</title></circle><circle cx="905.00" cy="431.83" r="3.5" fill="#2563eb"><title>Run 170: 25s after end marker</title></circle><circle cx="910.00" cy="443.95" r="3.5" fill="#2563eb"><title>Run 171: 2s after end marker</title></circle><circle cx="915.00" cy="405.50" r="3.5" fill="#2563eb"><title>Run 172: 75s after end marker</title></circle><circle cx="920.00" cy="426.04" r="3.5" fill="#2563eb"><title>Run 173: 36s after end marker</title></circle><circle cx="925.00" cy="409.19" r="3.5" fill="#2563eb"><title>Run 174: 68s after end marker</title></circle><circle cx="930.00" cy="416.03" r="3.5" fill="#2563eb"><title>Run 175: 55s after end marker</title></circle><circle cx="935.00" cy="430.78" r="3.5" fill="#2563eb"><title>Run 176: 27s after end marker</title></circle><circle cx="940.00" cy="398.13" r="3.5" fill="#2563eb"><title>Run 177: 89s after end marker</title></circle><circle cx="945.00" cy="402.34" r="3.5" fill="#2563eb"><title>Run 178: 81s after end marker</title></circle><circle cx="950.00" cy="444.47" r="3.5" fill="#2563eb"><title>Run 179: 1s after end marker</title></circle><circle cx="955.00" cy="430.25" r="3.5" fill="#2563eb"><title>Run 180: 28s after end marker</title></circle><circle cx="960.00" cy="426.04" r="3.5" fill="#2563eb"><title>Run 181: 36s after end marker</title></circle><circle cx="965.00" cy="403.92" r="3.5" fill="#2563eb"><title>Run 182: 78s after end marker</title></circle><circle cx="970.00" cy="428.67" r="3.5" fill="#2563eb"><title>Run 183: 31s after end marker</title></circle><circle cx="975.00" cy="444.47" r="3.5" fill="#2563eb"><title>Run 184: 1s after end marker</title></circle><circle cx="980.00" cy="428.67" r="3.5" fill="#2563eb"><title>Run 185: 31s after end marker</title></circle><circle cx="985.00" cy="246.45" r="3.5" fill="#dc2626"><title>Run 186: 377s after end marker</title></circle><circle cx="995.00" cy="106.88" r="3.5" fill="#dc2626"><title>Run 188: 642s after end marker</title></circle><circle cx="1000.00" cy="430.25" r="3.5" fill="#2563eb"><title>Run 189: 28s after end marker</title></circle><circle cx="1005.00" cy="395.49" r="3.5" fill="#2563eb"><title>Run 190: 94s after end marker</title></circle><circle cx="1010.00" cy="427.09" r="3.5" fill="#2563eb"><title>Run 191: 34s after end marker</title></circle><circle cx="1015.00" cy="123.73" r="3.5" fill="#dc2626"><title>Run 192: 610s after end marker</title></circle><circle cx="1025.00" cy="411.29" r="3.5" fill="#2563eb"><title>Run 194: 64s after end marker</title></circle><circle cx="1030.00" cy="423.93" r="3.5" fill="#2563eb"><title>Run 195: 40s after end marker</title></circle><circle cx="1035.00" cy="427.62" r="3.5" fill="#2563eb"><title>Run 196: 33s after end marker</title></circle><circle cx="1040.00" cy="396.02" r="3.5" fill="#2563eb"><title>Run 197: 93s after end marker</title></circle><circle cx="1045.00" cy="444.47" r="3.5" fill="#2563eb"><title>Run 198: 1s after end marker</title></circle><circle cx="1050.00" cy="419.19" r="3.5" fill="#2563eb"><title>Run 199: 49s after end marker</title></circle><circle cx="1055.00" cy="444.47" r="3.5" fill="#2563eb"><title>Run 200: 1s after end marker</title></circle><circle cx="1060.00" cy="430.78" r="3.5" fill="#2563eb"><title>Run 201: 27s after end marker</title></circle><circle cx="1065.00" cy="419.72" r="3.5" fill="#2563eb"><title>Run 202: 48s after end marker</title></circle><circle cx="1070.00" cy="123.73" r="3.5" fill="#dc2626"><title>Run 203: 610s after end marker</title></circle><circle cx="1075.00" cy="408.13" r="3.5" fill="#2563eb"><title>Run 204: 70s after end marker</title></circle><circle cx="1085.00" cy="381.27" r="3.5" fill="#dc2626"><title>Run 206: 121s after end marker</title></circle><circle cx="1090.00" cy="415.51" r="3.5" fill="#2563eb"><title>Run 207: 56s after end marker</title></circle><circle cx="1095.00" cy="426.57" r="3.5" fill="#2563eb"><title>Run 208: 35s after end marker</title></circle><circle cx="1100.00" cy="423.93" r="3.5" fill="#2563eb"><title>Run 209: 40s after end marker</title></circle><circle cx="1105.00" cy="414.98" r="3.5" fill="#2563eb"><title>Run 210: 57s after end marker</title></circle><circle cx="1110.00" cy="424.46" r="3.5" fill="#2563eb"><title>Run 211: 39s after end marker</title></circle><circle cx="1115.00" cy="429.73" r="3.5" fill="#2563eb"><title>Run 212: 29s after end marker</title></circle><circle cx="1120.00" cy="408.66" r="3.5" fill="#2563eb"><title>Run 213: 69s after end marker</title></circle><circle cx="1125.00" cy="442.89" r="3.5" fill="#2563eb"><title>Run 214: 4s after end marker</title></circle><circle cx="1130.00" cy="419.72" r="3.5" fill="#2563eb"><title>Run 215: 48s after end marker</title></circle><circle cx="1135.00" cy="428.15" r="3.5" fill="#2563eb"><title>Run 216: 32s after end marker</title></circle><circle cx="1140.00" cy="443.95" r="3.5" fill="#2563eb"><title>Run 217: 2s after end marker</title></circle><circle cx="1145.00" cy="436.57" r="3.5" fill="#2563eb"><title>Run 218: 16s after end marker</title></circle><circle cx="1150.00" cy="75.28" r="3.5" fill="#dc2626"><title>Run 219: 702s after end marker</title></circle><circle cx="1155.00" cy="416.03" r="3.5" fill="#2563eb"><title>Run 220: 55s after end marker</title></circle><circle cx="1160.00" cy="400.76" r="3.5" fill="#2563eb"><title>Run 221: 84s after end marker</title></circle><circle cx="1165.00" cy="73.17" r="3.5" fill="#dc2626"><title>Run 222: 706s after end marker</title></circle><circle cx="1170.00" cy="432.36" r="3.5" fill="#2563eb"><title>Run 223: 24s after end marker</title></circle>
  <circle cx="70.00" cy="445.00" r="4" fill="#9ca3af"><title>Run 3: end marker only found in final log scan</title></circle><circle cx="685.00" cy="445.00" r="4" fill="#9ca3af"><title>Run 126: end marker only found in final log scan</title></circle><circle cx="700.00" cy="445.00" r="4" fill="#9ca3af"><title>Run 129: end marker only found in final log scan</title></circle><circle cx="880.00" cy="445.00" r="4" fill="#9ca3af"><title>Run 165: end marker only found in final log scan</title></circle><circle cx="990.00" cy="445.00" r="4" fill="#9ca3af"><title>Run 187: end marker only found in final log scan</title></circle><circle cx="1020.00" cy="445.00" r="4" fill="#9ca3af"><title>Run 193: end marker only found in final log scan</title></circle><circle cx="1080.00" cy="445.00" r="4" fill="#9ca3af"><title>Run 205: end marker only found in final log scan</title></circle>
  <text x="615.00" y="496" text-anchor="middle" font-family="system-ui, sans-serif" font-size="12" fill="#374151">Run</text>
  <text x="18" y="247.50" text-anchor="middle" transform="rotate(-90 18 247.50)" font-family="system-ui, sans-serif" font-size="12" fill="#374151">Seconds after end marker</text>
</svg>
